<svg width="41" height="40" viewBox="0 0 41 40" fill="none" xmlns="http://www.w3.org/2000/svg">
<path d="M0.712646 5C0.712646 2.23858 2.95122 0 5.71265 0H15.7126C18.4741 0 20.7126 2.23858 20.7126 5V14.8192C20.7129 14.8792 20.713 14.9395 20.713 15C20.713 17.7575 22.9451 19.9936 25.7011 20C25.7049 20 25.7088 20 25.7126 20H35.7126C38.4741 20 40.7126 22.2386 40.7126 25V35C40.7126 37.7614 38.4741 40 35.7126 40H25.7126C22.9512 40 20.7126 37.7614 20.7126 35V25C20.7126 24.9861 20.7127 24.9723 20.7128 24.9584C20.6905 22.2162 18.4605 20 15.713 20C15.7001 20 15.6871 20 15.6742 20H5.71265C2.95122 20 0.712646 17.7614 0.712646 15V5Z" fill="#1D4ED8"/>
</svg>
