<svg width="164" height="48" viewBox="0 0 164 48" fill="none" xmlns="http://www.w3.org/2000/svg">
<path d="M0.712646 9C0.712646 6.23858 2.95122 4 5.71265 4H15.7126C18.4741 4 20.7126 6.23858 20.7126 9V18.8192C20.7129 18.8792 20.713 18.9395 20.713 19C20.713 21.7575 22.9451 23.9936 25.7011 24C25.7049 24 25.7088 24 25.7126 24H35.7126C38.4741 24 40.7126 26.2386 40.7126 29V39C40.7126 41.7614 38.4741 44 35.7126 44H25.7126C22.9512 44 20.7126 41.7614 20.7126 39V29C20.7126 28.9861 20.7127 28.9723 20.7128 28.9584C20.6905 26.2162 18.4605 24 15.713 24C15.7001 24 15.6871 24 15.6742 24H5.71265C2.95122 24 0.712646 21.7614 0.712646 19V9Z" fill="#1D4ED8"/>
<path d="M50.7221 19.18V15.96H64.7221V19.18H59.4021V35H56.0421V19.18H50.7221ZM79.3923 35L78.2163 31.276H71.6923L70.5163 35H67.1843L73.5403 15.96H76.5083L82.8923 35H79.3923ZM73.5123 25.452L72.6443 28.196H77.2363L76.3683 25.452L74.9683 20.636L73.5123 25.452ZM99.5407 35L94.7807 26.684C94.4634 27.0387 94.1367 27.3933 93.8007 27.748C93.4834 28.1027 93.1474 28.4667 92.7927 28.84V35H89.4327V15.96H92.7927V25.004C94.2114 23.38 95.4247 21.84 96.4327 20.384C97.4407 18.9093 98.3087 17.4347 99.0367 15.96H102.705C101.902 17.5653 101.043 19.0867 100.129 20.524C99.2327 21.9427 98.2807 23.2587 97.2727 24.472L103.601 35H99.5407ZM121.079 31.78V35H110.047V15.96H120.799V19.18H113.407V23.744H119.959V26.964H113.407V31.78H121.079ZM138.526 35L133.766 26.684C133.449 27.0387 133.122 27.3933 132.786 27.748C132.469 28.1027 132.133 28.4667 131.778 28.84V35H128.418V15.96H131.778V25.004C133.197 23.38 134.41 21.84 135.418 20.384C136.426 18.9093 137.294 17.4347 138.022 15.96H141.69C140.888 17.5653 140.029 19.0867 139.114 20.524C138.218 21.9427 137.266 23.2587 136.258 24.472L142.586 35H138.526ZM159.168 35L157.992 31.276H151.468L150.292 35H146.96L153.316 15.96H156.284L162.668 35H159.168ZM153.288 25.452L152.42 28.196H157.012L156.144 25.452L154.744 20.636L153.288 25.452Z" fill="white"/>
</svg>
