<svg width="200" height="60" viewBox="0 0 200 60" xmlns="http://www.w3.org/2000/svg">
  <!-- OM Symbol with Ganesha elements -->
  <g transform="translate(10, 15)">
    <!-- OM Symbol Base -->
    <path d="M15 15 Q15 5 25 5 Q35 5 35 15 Q35 25 25 25 Q15 25 15 15 Z" fill="none" stroke="#2563eb" stroke-width="2"/>
    <path d="M25 5 Q35 5 35 15" fill="none" stroke="#2563eb" stroke-width="2"/>
    <path d="M35 15 Q45 15 45 25 Q35 25 35 15" fill="none" stroke="#2563eb" stroke-width="2"/>
    <path d="M45 25 Q45 35 35 35" fill="none" stroke="#2563eb" stroke-width="2"/>
    <!-- Dot above -->
    <circle cx="35" cy="8" r="2" fill="#2563eb"/>
    <!-- Ganesha trunk curl -->
    <path d="M35 35 Q40 32 42 28 Q44 32 40 35" fill="none" stroke="#2563eb" stroke-width="2"/>
  </g>

  <!-- Home Icon -->
  <g transform="translate(60, 10)">
    <path d="M5 20 L15 10 L25 20 V30 H5 Z" fill="none" stroke="#2563eb" stroke-width="2"/>
    <rect x="10" y="20" width="10" height="10" fill="none" stroke="#2563eb" stroke-width="2"/>
    <!-- Door -->
    <rect x="12" y="22" width="6" height="8" fill="#2563eb"/>
  </g>

  <!-- Text -->
  <text x="110" y="25" font-family="Arial, sans-serif" font-size="18" font-weight="bold" fill="#1f2937">Home Manager</text>
  <text x="110" y="40" font-family="Arial, sans-serif" font-size="10" fill="#6b7280">Family Dashboard</text>
</svg>
