<svg width="120" height="40" viewBox="0 0 120 40" xmlns="http://www.w3.org/2000/svg">
  <defs>
    <linearGradient id="shivohmGradient" x1="0%" y1="0%" x2="100%" y2="0%">
      <stop offset="0%" style="stop-color:#8b5cf6"/>
      <stop offset="50%" style="stop-color:#ec4899"/>
      <stop offset="100%" style="stop-color:#f59e0b"/>
    </linearGradient>
  </defs>

  <!-- S -->
  <path d="M5 15 Q5 10 10 10 L20 10 Q25 10 25 15 L25 20 Q25 25 20 25 L15 25 L15 30 L10 30 L10 25 L5 25 Q0 25 0 20 Z" fill="url(#shivohmGradient)"/>

  <!-- h (Temple design) -->
  <g transform="translate(30, 0)">
    <!-- Temple base for h -->
    <rect x="2" y="22" width="8" height="2" fill="url(#shivohmGradient)" rx="0.5"/>
    <!-- Temple pillars for h -->
    <rect x="3" y="12" width="1" height="10" fill="url(#shivohmGradient)"/>
    <rect x="8" y="12" width="1" height="10" fill="url(#shivohmGradient)"/>
    <!-- Temple roof for h -->
    <polygon points="4,12 9,12 9.5,15 3.5,15" fill="url(#shivohmGradient)"/>
    <!-- Temple spire for h -->
    <polygon points="5.5,8 6.5,8 6,12 5,12" fill="url(#shivohmGradient)"/>
    <!-- h vertical line -->
    <rect x="5.5" y="15" width="1" height="10" fill="url(#shivohmGradient)"/>
  </g>

  <!-- i -->
  <circle cx="47" cy="12" r="1" fill="url(#shivohmGradient)"/>
  <rect x="46.5" y="15" width="1" height="10" fill="url(#shivohmGradient)"/>

  <!-- v -->
  <path d="M52 15 L56 25 L60 15" fill="none" stroke="url(#shivohmGradient)" stroke-width="1.5" stroke-linecap="round" stroke-linejoin="round"/>

  <!-- o -->
  <circle cx="67" cy="20" r="5" fill="none" stroke="url(#shivohmGradient)" stroke-width="1.5"/>

  <!-- h -->
  <rect x="75" y="15" width="1" height="10" fill="url(#shivohmGradient)"/>
  <rect x="75" y="17.5" width="6" height="1" fill="url(#shivohmGradient)"/>
  <rect x="80" y="20" width="1" height="5" fill="url(#shivohmGradient)"/>

  <!-- m (Elephant design) -->
  <g transform="translate(85, 0)">
    <!-- Elephant head/body -->
    <ellipse cx="5" cy="20" rx="4" ry="3" fill="url(#shivohmGradient)"/>
    <!-- Elephant trunk -->
    <path d="M1 20 Q0 18 2 16 Q4 14 6 16" fill="none" stroke="url(#shivohmGradient)" stroke-width="1.5" stroke-linecap="round"/>
    <!-- Elephant tusks -->
    <line x1="3" y1="18" x2="2" y2="16" stroke="url(#shivohmGradient)" stroke-width="1"/>
    <line x1="7" y1="18" x2="8" y2="16" stroke="url(#shivohmGradient)" stroke-width="1"/>
    <!-- Elephant ears -->
    <ellipse cx="2" cy="18" rx="1.5" ry="2" fill="none" stroke="url(#shivohmGradient)" stroke-width="1"/>
    <ellipse cx="8" cy="18" rx="1.5" ry="2" fill="none" stroke="url(#shivohmGradient)" stroke-width="1"/>
    <!-- m curves -->
    <path d="M10 15 Q12 17 12 20 Q12 23 10 25" fill="none" stroke="url(#shivohmGradient)" stroke-width="1.5"/>
    <path d="M12 15 Q14 17 14 20 Q14 23 12 25" fill="none" stroke="url(#shivohmGradient)" stroke-width="1.5"/>
  </g>
</svg>
